<svg width="88" height="88" viewBox="0 0 88 88" fill="none" xmlns="http://www.w3.org/2000/svg">
<path fill-rule="evenodd" clip-rule="evenodd" d="M45.8341 10.0833C42.2903 10.0833 39.4174 12.9562 39.4174 16.5C39.4174 20.0438 42.2903 22.9167 45.8341 22.9167C49.3779 22.9167 52.2508 20.0438 52.2508 16.5C52.2508 12.9562 49.3779 10.0833 45.8341 10.0833ZM33.9173 16.5C33.9173 9.91858 39.2524 4.58333 45.8341 4.58333C52.4154 4.58333 57.7508 9.91858 57.7508 16.5C57.7508 23.0814 52.4154 28.4167 45.8341 28.4167C39.2524 28.4167 33.9173 23.0814 33.9173 16.5ZM49.6027 39.4284C49.463 39.4185 49.2881 39.4167 48.6567 39.4167H44.656L44.3216 42.7588C43.6836 49.1403 43.4618 51.7048 44.0319 54.1314C44.6017 56.5576 45.9426 58.7547 49.3559 64.1843L58.7969 79.2029C59.6054 80.4888 59.2182 82.1865 57.9323 82.995C56.6464 83.8031 54.9487 83.4159 54.1406 82.1304L44.6993 67.1114C44.6094 66.9687 44.5207 66.8272 44.4327 66.6875C41.3718 61.8196 39.4827 58.8159 38.6775 55.389C37.8723 51.9622 38.2261 48.4315 38.7992 42.7101C38.8157 42.5458 38.8322 42.3797 38.8491 42.2118L39.1281 39.42C37.2908 39.4295 35.9312 39.4651 34.8338 39.5982C33.4507 39.7661 32.8056 40.0583 32.3486 40.4246C31.8917 40.7913 31.4666 41.3578 31.0026 42.6716C30.5138 44.0561 30.0928 45.9287 29.4662 48.7483L28.3518 53.7632C28.0223 55.2457 26.5533 56.1807 25.0707 55.851C23.5881 55.5218 22.6533 54.0529 22.9828 52.5701L24.133 47.3939C24.7142 44.7784 25.2034 42.5766 25.8165 40.8401C26.4671 38.9976 27.3532 37.3809 28.9071 36.1346C30.461 34.8881 32.2314 34.3737 34.1712 34.1383C35.9991 33.9165 38.2547 33.9165 40.934 33.9167H48.6567C48.6871 33.9167 48.7172 33.9167 48.7469 33.9167C49.2459 33.9165 49.6335 33.9165 49.9961 33.9425C54.0808 34.2353 57.5825 36.9695 58.8574 40.861C58.9703 41.2064 59.0642 41.5826 59.1852 42.0662L59.2072 42.1542C59.4129 42.9774 59.4741 43.2109 59.5309 43.3741C60.3017 45.5965 62.6296 46.8743 64.9184 46.3316C65.0867 46.292 65.3166 46.218 66.1214 45.9499L68.7977 45.0578C70.2383 44.5775 71.7959 45.3563 72.2763 46.7969C72.7566 48.2379 71.9778 49.7952 70.5368 50.2755L67.8609 51.1676C67.8205 51.1808 67.7809 51.1944 67.7421 51.2072C67.1114 51.4177 66.627 51.579 66.1874 51.6835C61.1523 52.8774 56.0307 50.0658 54.3345 45.177C54.1864 44.7498 54.0628 44.2548 53.9019 43.6095C53.8916 43.5699 53.8817 43.5292 53.8714 43.4881C53.7182 42.8758 53.6742 42.7064 53.6305 42.5733C53.0512 40.8045 51.4595 39.5615 49.6027 39.4284ZM38.1928 61.8787C39.4563 62.7209 39.798 64.4285 38.9554 65.692L27.9554 82.192C27.1129 83.4559 25.4056 83.7973 24.1419 82.9547C22.8782 82.1124 22.5367 80.4049 23.3791 79.1413L34.3791 62.6413C35.2216 61.3774 36.9289 61.0361 38.1928 61.8787Z" fill="#262626"/>
</svg>
