<svg width="87" height="87" viewBox="0 0 87 87" fill="none" xmlns="http://www.w3.org/2000/svg">
<path d="M12.2525 5.2925C17.7806 5.2925 23.0823 7.48853 26.9913 11.3975C30.9002 15.3065 33.0963 20.6081 33.0963 26.1363V57.42H12.2525V5.2925Z" stroke="#020202" stroke-width="4" stroke-miterlimit="10"/>
<path d="M12.2525 85.1875V57.3838H26.1363V85.1875" stroke="#020202" stroke-width="4" stroke-miterlimit="10"/>
<path d="M53.94 85.1875V40.02H67.8237V85.1875" stroke="#020202" stroke-width="4" stroke-miterlimit="10"/>
<path d="M47.125 26.1363H74.9287V29.7613C74.8528 32.5016 73.6983 35.1012 71.7162 36.995C69.7341 38.8888 67.0847 39.9238 64.3437 39.875H57.3837C54.6775 39.8284 52.0951 38.7326 50.1813 36.8187C48.2674 34.9049 47.1716 32.3225 47.125 29.6163V25.9913V26.1363Z" stroke="#020202" stroke-width="4" stroke-miterlimit="10"/>
<path d="M60.8638 1.8125V26.1363" stroke="#020202" stroke-width="4" stroke-miterlimit="10"/>
<path d="M46.98 1.8125V26.1363" stroke="#020202" stroke-width="4" stroke-miterlimit="10"/>
<path d="M74.7838 1.8125V26.1363" stroke="#020202" stroke-width="4" stroke-miterlimit="10"/>
</svg>
