<?xml version="1.0" encoding="utf-8"?>
<!-- Generator: Adobe Illustrator 28.0.0, SVG Export Plug-In . SVG Version: 6.00 Build 0)  -->
<svg version="1.1" xmlns="http://www.w3.org/2000/svg" xmlns:xlink="http://www.w3.org/1999/xlink" x="0px" y="0px"
	 viewBox="0 0 266.6 267.8" style="enable-background:new 0 0 266.6 267.8;" xml:space="preserve">
<style type="text/css">
	.st0{fill:#262626;}
	.st1{display:none;}
	.st2{display:inline;}
	.st3{clip-path:url(#SVGID_00000070831294576182910490000005802054135814306731_);}
	.st4{display:inline;fill:#262626;}
	.st5{display:inline;fill:none;stroke:#262626;stroke-width:8;stroke-linecap:round;stroke-linejoin:round;}
</style>
<g id="plug">
	<g transform="translate(0.000000,500.000000) scale(0.100000,-0.100000)">
		<path class="st0" d="M441.7,2921.8c-6.1,38.3,2.3,77.5,24.1,120.8c37.9,74,84.1,124.3,99.5,108.9c22.6-22.6,50.2-13.4,169.2,55.5
			l116.9,67.8l45.1-12.3c49.2-14.4,49.2-14.4,126.1,52.4c43.1,37,62.5,79.1,93.3,199.4c9.2,32.9,39,68.9,154.8,185l143.5,142.8
			l68.7-18.5c59.5-15.4,77.9-25.7,127.1-75l57.4-56.5l116.9-7.2c122-8.2,155.8-4.1,167.1,24.7c3.1,9.2,6.2,118.2,6.2,241.5
			c0,190.1-2.1,226.1-16.4,236.4c-12.3,10.3-78.9,13.4-298.4,11.3c-155.8-1-293.2-6.2-306.6-11.3c-24.6-9.2-834.6-682.4-846.9-702.9
			c-16.4-28.8,33.8-80.2,99.5-101.7c6.2-2.1-11.3-30.8-37.9-63.7c-29.7-34.9-49.2-68.9-49.2-84.3c0-14.4-17.4-46.2-40-73
			c-129.2-156.2-124.1-289.8,17.4-425.4c261.4-250.7,641.8-372,1015-322.7c284,38,508.5,147,712.6,344.3
			c179.4,173.7,288.1,362.8,350.6,609.4c138.4,550.8-135.3,1154-640.8,1415.1c-104.6,53.4-218.4,94.5-333.2,119.2
			c-87.1,19.5-334.2,27.7-422.4,15.4c-407-57.5-768.9-316.5-952.5-680.3c-88.2-174.7-126.1-325.8-134.3-527.2
			c-6.2-160.3,11.3-293.9,58.4-435.7c35.9-110,46.1-126.4,75.9-122.3c28.7,4.1,26.7,42.1-8.2,141.8
			c-47.2,135.6-60.5,233.3-54.3,411.1c6.2,197.3,33.8,313.4,113.8,477.9c154.8,317.5,432.7,547.7,770,639.2
			c94.3,25.7,117.9,27.7,302.5,27.7c186.6,0,207.1-2.1,302.5-27.7c426.5-117.2,742.3-440.9,858.1-880.7c19.5-76,22.6-113,22.6-277.5
			c0-171.6-3.1-199.4-26.7-288.8c-124.1-459.4-470.6-789.2-930.9-884.8c-133.3-27.7-385.5-21.6-507.5,11.3
			c-188.6,52.4-337.3,128.5-479.8,244.6C492.5,2809.5,450.9,2864.7,441.7,2921.8 M1824.3,4084.6c0-6.2-9.2-28.8-20.5-50.4
			l-19.5-39.1l34.9-19.5c19.5-10.3,35.9-22.6,35.9-25.7c0-4.1-30.8-36-67.7-70.9c-78.9-74-106.6-71.9-61.5,4.1l26.7,46.2l-30.8,16.4
			c-16.4,8.2-30.8,19.5-30.8,22.6c0,10.3,115.9,126.4,125.1,126.4C1820.2,4094.8,1824.3,4089.7,1824.3,4084.6z"/>
		<path class="st0" d="M2005.8,4129.8c-4.1-4.1-7.2-90.4-7.2-191.1v-182.9h86.1c69.7,0,87.1,3.1,92.3,16.4
			c9.2,23.6-5.1,347.3-15.4,353.5C2148.3,4134.9,2014,4138,2005.8,4129.8z"/>
	</g>
</g>
<g id="Livello_6">
	<path class="st0" d="M13.8,185.5C4.1,161.9,1.5,136,6.5,110.9c5-25,17.3-48.1,35.3-66.1c18.1-18.1,41.1-30.4,66.1-35.3
		s51-2.4,74.6,7.3c23.6,9.8,43.8,26.3,57.9,47.6c14.2,21.2,21.8,46.2,21.8,71.7c0,34.2-13.6,67.1-37.8,91.3
		c-24.2,24.2-57.1,37.8-91.3,37.8c-25.5,0-47.1-8.4-68.2-22.5c-0.1-0.1-0.2-0.1-0.3-0.2c-9.1-7.4-13.7-14.8-17.6-20.9
		c-1.6-2.6,0.6-4.7,3.2-3.2l0,0c0.2,0.1,0.4,0.3,0.6,0.5c16.3,16.2,37,27.2,59.5,31.7c22.6,4.5,46.1,2.2,67.4-6.6
		c21.3-8.8,39.6-23.8,52.4-43c12.8-19.2,19.7-41.8,19.7-64.8c0-31-12.3-60.6-34.2-82.5c-21.9-21.9-51.6-34.2-82.5-34.2
		c-23.1,0-45.7,6.8-64.8,19.7s-34.2,31.1-43,52.4c-8.8,21.3-11.1,44.8-6.6,67.4c1.5,7.3,6.3,14,9.1,20.8c0.6,1.6,2,4.3,0.4,4.9
		 M39.1,205.3"/>
</g>
<g id="Warning" class="st1">
	<g class="st2">
		<defs>
			<rect id="SVGID_1_" x="-14.5" y="-11.4" width="295" height="295"/>
		</defs>
		<clipPath id="SVGID_00000128468483977259844770000017491390792069609649_">
			<use xlink:href="#SVGID_1_"  style="overflow:visible;"/>
		</clipPath>
		<g style="clip-path:url(#SVGID_00000128468483977259844770000017491390792069609649_);">
			<path class="st0" d="M133,213.1c6,0,10.9-4.9,10.9-10.9s-4.9-10.9-10.9-10.9c-6,0-10.9,4.9-10.9,10.9S127,213.1,133,213.1z"/>
			<path class="st0" d="M133,173.9c-2.2,0-4.3-0.9-5.8-2.4c-1.5-1.5-2.4-3.6-2.4-5.8V67.4c0-2.2,0.9-4.3,2.4-5.8
				c1.5-1.5,3.6-2.4,5.8-2.4s4.3,0.9,5.8,2.4c1.5,1.5,2.4,3.6,2.4,5.8v98.3c0,2.2-0.9,4.3-2.4,5.8C137.3,173,135.2,173.9,133,173.9z
				"/>
		</g>
	</g>
</g>
<g id="cerchioWarning" class="st1">
	<path class="st4" d="M133.1,265.2c-25.5,0-50.5-7.6-71.7-21.8c-21.2-14.2-37.8-34.4-47.6-57.9S1.5,136,6.5,110.9
		c5-25,17.3-48.1,35.3-66.1c18.1-18.1,41.1-30.4,66.1-35.3s51-2.4,74.6,7.3c23.6,9.8,43.8,26.3,57.9,47.6
		c14.2,21.2,21.8,46.2,21.8,71.7c0,34.2-13.6,67.1-37.8,91.3C200.2,251.6,167.4,265.2,133.1,265.2z M133.1,19.4
		c-23.1,0-45.7,6.8-64.8,19.7s-34.2,31.1-43,52.4c-8.8,21.3-11.1,44.8-6.6,67.4c4.5,22.6,15.6,43.4,31.9,59.8s37.1,27.4,59.8,31.9
		c22.6,4.5,46.1,2.2,67.4-6.6c21.3-8.8,39.6-23.8,52.4-43c12.8-19.2,19.7-41.8,19.7-64.8c0-31-12.3-60.6-34.2-82.5
		C193.8,31.7,164.1,19.4,133.1,19.4z"/>
</g>
<g id="Tel" class="st1">
	<path class="st5" d="M152.9,171.7l11.4-11.4c1.8-1.8,3.8-3.2,6.1-4.1c2.3-1,4.8-1.5,7.3-1.5s5,0.5,7.3,1.5c2.3,1,4.4,2.4,6.1,4.1
		l13.3,13.4c1.8,1.8,3.2,3.8,4.1,6.1c1,2.3,1.5,4.8,1.5,7.3c0,2.5-0.5,5-1.5,7.3c-1,2.3-2.4,4.4-4.1,6.1l-6.1,6.2
		c-4.2,4.2-9.6,7-15.5,8c-5.9,1-11.9,0.1-17.2-2.6C119.9,188.4,82.6,151.2,59,105.4c-2.7-5.3-3.6-11.4-2.6-17.2
		c1-5.9,3.8-11.3,8.1-15.5l6.1-6.2C74.1,63,78.9,61,83.9,61s9.8,2,13.4,5.5L110.7,80c3.5,3.6,5.5,8.4,5.5,13.4c0,5-2,9.8-5.5,13.4
		l-11.4,11.4c7.5,10.2,15.8,19.8,24.7,28.8c8.9,8.9,18.4,17.1,28.6,24.6L152.9,171.7z"/>
</g>
<g id="cerchioTel" class="st1">
	<path class="st4" d="M133.1,265.2c-25.5,0-50.5-7.6-71.7-21.8c-21.2-14.2-37.8-34.4-47.6-57.9S1.5,136,6.5,110.9
		c5-25,17.3-48.1,35.3-66.1c18.1-18.1,41.1-30.4,66.1-35.3s51-2.4,74.6,7.3c23.6,9.8,43.8,26.3,57.9,47.6
		c14.2,21.2,21.8,46.2,21.8,71.7c0,34.2-13.6,67.1-37.8,91.3C200.2,251.6,167.4,265.2,133.1,265.2z M133.1,19.4
		c-23.1,0-45.7,6.8-64.8,19.7s-34.2,31.1-43,52.4c-8.8,21.3-11.1,44.8-6.6,67.4c4.5,22.6,15.6,43.4,31.9,59.8s37.1,27.4,59.8,31.9
		c22.6,4.5,46.1,2.2,67.4-6.6c21.3-8.8,39.6-23.8,52.4-43c12.8-19.2,19.7-41.8,19.7-64.8c0-31-12.3-60.6-34.2-82.5
		C193.8,31.7,164.1,19.4,133.1,19.4z"/>
</g>
</svg>
