<?xml version="1.0" encoding="utf-8"?>
<!-- Generator: Adobe Illustrator 28.0.0, SVG Export Plug-In . SVG Version: 6.00 Build 0)  -->
<svg version="1.1" xmlns="http://www.w3.org/2000/svg" xmlns:xlink="http://www.w3.org/1999/xlink" x="0px" y="0px"
	 viewBox="0 0 266.6 267.8" style="enable-background:new 0 0 266.6 267.8;" xml:space="preserve">
<style type="text/css">
	.st0{display:none;}
	.st1{display:inline;}
	.st2{fill:#262626;}
	.st3{display:inline;fill:#262626;}
	.st4{display:inline;fill:none;stroke:#262626;stroke-width:5;stroke-miterlimit:10;}
	.st5{clip-path:url(#SVGID_00000119101306991622061900000008597972927199900579_);}
	.st6{fill:none;stroke:#262626;stroke-width:8;stroke-linecap:round;stroke-linejoin:round;}
	.st7{fill:none;stroke:#262626;stroke-width:5;stroke-miterlimit:10;}
</style>
<g id="plug" class="st0">
	<g transform="translate(0.000000,500.000000) scale(0.100000,-0.100000)" class="st1">
		<path class="st2" d="M501.7,3234.7c0-9.6-7.8-26.9-19.6-45.3c15.5-17.5,35.1-32.1,54.7-46.4c12.5,10.7,22.7,14.3,28.5,8.4
			c22.6-22.6,50.2-13.4,169.2,55.5l116.9,67.8l45.1-12.3c49.2-14.4,49.2-14.4,126.1,52.4c43.1,37,62.5,79.1,93.3,199.4
			c9.2,32.9,39,68.9,154.8,185l143.5,142.8l68.7-18.5c59.5-15.4,77.9-25.7,127.1-75l57.4-56.5l116.9-7.2
			c122-8.2,155.8-4.1,167.1,24.7c3.1,9.2,6.2,118.2,6.2,241.5c0,190.1-2.1,226.1-16.4,236.4c-12.3,10.3-78.9,13.4-298.4,11.3
			c-155.8-1-293.2-6.2-306.6-11.3c-24.6-9.2-834.6-682.4-846.9-702.9c-16.4-28.8,33.8-80.2,99.5-101.7c6.2-2.1-11.3-30.8-37.9-63.7
			C521.2,3284,501.7,3250.1,501.7,3234.7z M1816.1,4094.8c4.1,0,8.2-5.1,8.2-10.3c0-6.2-9.2-28.8-20.5-50.4l-19.5-39.1l34.9-19.5
			c19.5-10.3,35.9-22.6,35.9-25.7c0-4.1-30.8-36-67.7-70.9c-78.9-74-106.6-71.9-61.5,4.1l26.7,46.2l-30.8,16.4
			c-16.4,8.2-30.8,19.5-30.8,22.6C1691,3978.7,1806.9,4094.8,1816.1,4094.8z"/>
		<path class="st2" d="M2005.8,4129.8c-4.1-4.1-7.2-90.4-7.2-191.1v-182.9h86.1c69.7,0,87.1,3.1,92.3,16.4
			c9.2,23.6-5.1,347.3-15.4,353.5C2148.3,4134.9,2014,4138,2005.8,4129.8z"/>
	</g>
	<path class="st3" d="M48.2,181.1c0,0-19.3,25.8-12.6,40.5c0,0,3.5,6.1,3-0.6c-0.5-6.7,0.8-23.3,15-35.2L48.2,181.1z"/>
</g>
<g id="Livello_6" class="st0">
	<circle class="st4" cx="133" cy="133.7" r="129.7"/>
</g>
<g id="Warning" class="st0">
	<g class="st1">
		<defs>
			<rect id="SVGID_1_" x="-14.5" y="-11.4" width="295" height="295"/>
		</defs>
		<clipPath id="SVGID_00000068647700588801751690000006894331463210191237_">
			<use xlink:href="#SVGID_1_"  style="overflow:visible;"/>
		</clipPath>
		<g style="clip-path:url(#SVGID_00000068647700588801751690000006894331463210191237_);">
			<path class="st2" d="M133,213.1c6,0,10.9-4.9,10.9-10.9s-4.9-10.9-10.9-10.9c-6,0-10.9,4.9-10.9,10.9S127,213.1,133,213.1z"/>
			<path class="st2" d="M133,173.9c-2.2,0-4.3-0.9-5.8-2.4c-1.5-1.5-2.4-3.6-2.4-5.8V67.4c0-2.2,0.9-4.3,2.4-5.8
				c1.5-1.5,3.6-2.4,5.8-2.4s4.3,0.9,5.8,2.4c1.5,1.5,2.4,3.6,2.4,5.8v98.3c0,2.2-0.9,4.3-2.4,5.8C137.3,173,135.2,173.9,133,173.9z
				"/>
		</g>
	</g>
</g>
<g id="cerchioWarning" class="st0">
	<circle class="st4" cx="133" cy="133.7" r="129.7"/>
</g>
<g id="Tel">
	<path class="st6" d="M152.9,171.7l11.4-11.4c1.8-1.8,3.8-3.2,6.1-4.1c2.3-1,4.8-1.5,7.3-1.5s5,0.5,7.3,1.5c2.3,1,4.4,2.4,6.1,4.1
		l13.3,13.4c1.8,1.8,3.2,3.8,4.1,6.1c1,2.3,1.5,4.8,1.5,7.3c0,2.5-0.5,5-1.5,7.3c-1,2.3-2.4,4.4-4.1,6.1l-6.1,6.2
		c-4.2,4.2-9.6,7-15.5,8c-5.9,1-11.9,0.1-17.2-2.6C119.9,188.4,82.6,151.2,59,105.4c-2.7-5.3-3.6-11.4-2.6-17.2
		c1-5.9,3.8-11.3,8.1-15.5l6.1-6.2C74.1,63,78.9,61,83.9,61s9.8,2,13.4,5.5L110.7,80c3.5,3.6,5.5,8.4,5.5,13.4c0,5-2,9.8-5.5,13.4
		l-11.4,11.4c7.5,10.2,15.8,19.8,24.7,28.8c8.9,8.9,18.4,17.1,28.6,24.6L152.9,171.7z"/>
</g>
<g id="cerchioTel">
	<circle class="st7" cx="133" cy="133.7" r="129.7"/>
</g>
</svg>
