<svg width="516" height="516" viewBox="0 0 516 516" fill="none" xmlns="http://www.w3.org/2000/svg">
<path d="M277.904 186.711L289.283 175.327C291.034 173.555 293.119 172.146 295.417 171.186C297.715 170.226 300.181 169.732 302.672 169.732C305.163 169.732 307.628 170.226 309.927 171.186C312.225 172.146 314.31 173.555 316.06 175.327L329.407 188.68C331.178 190.431 332.586 192.515 333.546 194.815C334.506 197.113 335 199.582 335 202.073C335 204.565 334.506 207.033 333.546 209.333C332.586 211.632 331.178 213.716 329.407 215.467L323.332 221.629C319.147 225.857 313.734 228.656 307.865 229.624C301.996 230.592 295.972 229.682 290.651 227.022C244.866 203.443 207.574 166.165 183.968 120.381C181.307 115.053 180.403 109.017 181.387 103.143C182.371 97.2682 185.191 91.8564 189.444 87.6867L195.517 81.5247C199.076 77.9864 203.889 76 208.906 76C213.923 76 218.737 77.9864 222.295 81.5247L235.727 94.9623C239.264 98.5222 241.249 103.337 241.249 108.356C241.249 113.375 239.264 118.19 235.727 121.75L224.348 133.134C231.872 143.314 240.136 152.925 249.073 161.889C257.958 170.794 267.511 179.007 277.647 186.454L277.904 186.711Z" stroke="#262626" stroke-width="8" stroke-linecap="round" stroke-linejoin="round"/>
<path d="M258.111 280.222C232.575 280.222 207.613 272.65 186.381 258.463C165.149 244.276 148.6 224.112 138.828 200.52C129.056 176.928 126.499 150.968 131.481 125.923C136.463 100.878 148.759 77.8723 166.816 59.8158C184.872 41.7593 207.878 29.4627 232.923 24.4809C257.968 19.4991 283.928 22.0559 307.52 31.8281C331.112 41.6002 351.276 58.1487 365.463 79.3809C379.65 100.613 387.222 125.575 387.222 151.111C387.222 185.354 373.62 218.193 349.407 242.407C325.193 266.62 292.354 280.222 258.111 280.222ZM258.111 34.3889C235.026 34.3889 212.459 41.2346 193.264 54.0602C174.069 66.8858 159.108 85.1153 150.274 106.444C141.439 127.772 139.128 151.241 143.632 173.883C148.135 196.524 159.252 217.322 175.576 233.646C191.9 249.97 212.698 261.087 235.34 265.591C257.982 270.094 281.451 267.783 302.779 258.948C324.107 250.114 342.337 235.153 355.162 215.959C367.988 196.764 374.833 174.197 374.833 151.111C374.833 120.155 362.536 90.4658 340.646 68.5761C318.757 46.6864 289.068 34.3889 258.111 34.3889Z" fill="#262626" stroke="#F9F9F9" stroke-width="4"/>
</svg>
