<?xml version="1.0" encoding="utf-8"?>
<!-- Generator: Adobe Illustrator 28.0.0, SVG Export Plug-In . SVG Version: 6.00 Build 0)  -->
<svg version="1.1" xmlns="http://www.w3.org/2000/svg" xmlns:xlink="http://www.w3.org/1999/xlink" x="0px" y="0px"
	 viewBox="0 0 266.6 267.8" style="enable-background:new 0 0 266.6 267.8;" xml:space="preserve">
<style type="text/css">
	.st0{display:none;}
	.st1{display:inline;fill:#262626;}
	.st2{display:inline;}
	.st3{clip-path:url(#SVGID_00000111894214963103127360000005825413917381173671_);}
	.st4{fill:#262626;}
	.st5{fill:none;stroke:#262626;stroke-width:8;stroke-linecap:round;stroke-linejoin:round;}
</style>
<g id="plug" class="st0">
</g>
<g id="Livello_6" class="st0">
	<path class="st1" d="M13.8,185.5C4.1,161.9,1.5,136,6.5,110.9c5-25,17.3-48.1,35.3-66.1c18.1-18.1,41.1-30.4,66.1-35.3
		s51-2.4,74.6,7.3c23.6,9.8,43.8,26.3,57.9,47.6c14.2,21.2,21.8,46.2,21.8,71.7c0,34.2-13.6,67.1-37.8,91.3
		c-24.2,24.2-57.1,37.8-91.3,37.8c-25.5,0-47.1-8.4-68.2-22.5c-0.1-0.1-0.2-0.1-0.3-0.2c-9.1-7.4-13.7-14.8-17.6-20.9
		c-1.6-2.6,0.6-4.7,3.2-3.2l0,0c0.2,0.1,0.4,0.3,0.6,0.5c16.3,16.2,37,27.2,59.5,31.7c22.6,4.5,46.1,2.2,67.4-6.6
		c21.3-8.8,39.6-23.8,52.4-43c12.8-19.2,19.7-41.8,19.7-64.8c0-31-12.3-60.6-34.2-82.5c-21.9-21.9-51.6-34.2-82.5-34.2
		c-23.1,0-45.7,6.8-64.8,19.7s-34.2,31.1-43,52.4c-8.8,21.3-11.1,44.8-6.6,67.4c1.5,7.3,6.3,14,9.1,20.8c0.6,1.6,2,4.3,0.4,4.9
		 M39.1,205.3"/>
</g>
<g id="Warning" class="st0">
	<g class="st2">
		<defs>
			<rect id="SVGID_1_" x="-14.5" y="-11.4" width="295" height="295"/>
		</defs>
		<clipPath id="SVGID_00000066474520723197911680000013181013422100817802_">
			<use xlink:href="#SVGID_1_"  style="overflow:visible;"/>
		</clipPath>
		<g style="clip-path:url(#SVGID_00000066474520723197911680000013181013422100817802_);">
			<path class="st4" d="M133,213.1c6,0,10.9-4.9,10.9-10.9s-4.9-10.9-10.9-10.9c-6,0-10.9,4.9-10.9,10.9S127,213.1,133,213.1z"/>
			<path class="st4" d="M133,173.9c-2.2,0-4.3-0.9-5.8-2.4c-1.5-1.5-2.4-3.6-2.4-5.8V67.4c0-2.2,0.9-4.3,2.4-5.8
				c1.5-1.5,3.6-2.4,5.8-2.4s4.3,0.9,5.8,2.4c1.5,1.5,2.4,3.6,2.4,5.8v98.3c0,2.2-0.9,4.3-2.4,5.8C137.3,173,135.2,173.9,133,173.9z
				"/>
		</g>
	</g>
</g>
<g id="cerchioWarning" class="st0">
	<path class="st1" d="M133.1,265.2c-25.5,0-50.5-7.6-71.7-21.8c-21.2-14.2-37.8-34.4-47.6-57.9S1.5,136,6.5,110.9
		c5-25,17.3-48.1,35.3-66.1c18.1-18.1,41.1-30.4,66.1-35.3s51-2.4,74.6,7.3c23.6,9.8,43.8,26.3,57.9,47.6
		c14.2,21.2,21.8,46.2,21.8,71.7c0,34.2-13.6,67.1-37.8,91.3C200.2,251.6,167.4,265.2,133.1,265.2z M133.1,19.4
		c-23.1,0-45.7,6.8-64.8,19.7s-34.2,31.1-43,52.4c-8.8,21.3-11.1,44.8-6.6,67.4c4.5,22.6,15.6,43.4,31.9,59.8s37.1,27.4,59.8,31.9
		c22.6,4.5,46.1,2.2,67.4-6.6c21.3-8.8,39.6-23.8,52.4-43c12.8-19.2,19.7-41.8,19.7-64.8c0-31-12.3-60.6-34.2-82.5
		C193.8,31.7,164.1,19.4,133.1,19.4z"/>
</g>
<g id="Tel">
	<path class="st5" d="M152.9,171.7l11.4-11.4c1.8-1.8,3.8-3.2,6.1-4.1c2.3-1,4.8-1.5,7.3-1.5s5,0.5,7.3,1.5c2.3,1,4.4,2.4,6.1,4.1
		l13.3,13.4c1.8,1.8,3.2,3.8,4.1,6.1c1,2.3,1.5,4.8,1.5,7.3c0,2.5-0.5,5-1.5,7.3c-1,2.3-2.4,4.4-4.1,6.1l-6.1,6.2
		c-4.2,4.2-9.6,7-15.5,8c-5.9,1-11.9,0.1-17.2-2.6C119.9,188.4,82.6,151.2,59,105.4c-2.7-5.3-3.6-11.4-2.6-17.2
		c1-5.9,3.8-11.3,8.1-15.5l6.1-6.2C74.1,63,78.9,61,83.9,61s9.8,2,13.4,5.5L110.7,80c3.5,3.6,5.5,8.4,5.5,13.4c0,5-2,9.8-5.5,13.4
		l-11.4,11.4c7.5,10.2,15.8,19.8,24.7,28.8c8.9,8.9,18.4,17.1,28.6,24.6L152.9,171.7z"/>
</g>
<g id="cerchioTel">
	<path class="st4" d="M133.1,265.2c-25.5,0-50.5-7.6-71.7-21.8c-21.2-14.2-37.8-34.4-47.6-57.9S1.5,136,6.5,110.9
		c5-25,17.3-48.1,35.3-66.1c18.1-18.1,41.1-30.4,66.1-35.3s51-2.4,74.6,7.3c23.6,9.8,43.8,26.3,57.9,47.6
		c14.2,21.2,21.8,46.2,21.8,71.7c0,34.2-13.6,67.1-37.8,91.3C200.2,251.6,167.4,265.2,133.1,265.2z M133.1,19.4
		c-23.1,0-45.7,6.8-64.8,19.7s-34.2,31.1-43,52.4c-8.8,21.3-11.1,44.8-6.6,67.4c4.5,22.6,15.6,43.4,31.9,59.8s37.1,27.4,59.8,31.9
		c22.6,4.5,46.1,2.2,67.4-6.6c21.3-8.8,39.6-23.8,52.4-43c12.8-19.2,19.7-41.8,19.7-64.8c0-31-12.3-60.6-34.2-82.5
		C193.8,31.7,164.1,19.4,133.1,19.4z"/>
</g>
</svg>
