<svg width="295" height="295" viewBox="0 0 295 295" fill="none" xmlns="http://www.w3.org/2000/svg">
<g clip-path="url(#clip0_2_22)">
<path d="M147.5 224.446C153.519 224.446 158.399 219.566 158.399 213.547C158.399 207.528 153.519 202.649 147.5 202.649C141.481 202.649 136.601 207.528 136.601 213.547C136.601 219.566 141.481 224.446 147.5 224.446Z" fill="#262626"/>
<path d="M147.5 185.276C145.327 185.276 143.243 184.413 141.706 182.876C140.169 181.34 139.306 179.255 139.306 177.082V78.7486C139.306 76.5753 140.169 74.4911 141.706 72.9543C143.243 71.4175 145.327 70.5542 147.5 70.5542C149.673 70.5542 151.758 71.4175 153.294 72.9543C154.831 74.4911 155.695 76.5753 155.695 78.7486V177.082C155.695 179.255 154.831 181.34 153.294 182.876C151.758 184.413 149.673 185.276 147.5 185.276Z" fill="#262626"/>
<path d="M147.5 276.611C121.964 276.611 97.002 269.039 75.7698 254.852C54.5376 240.665 37.9891 220.501 28.217 196.909C18.4449 173.317 15.888 147.357 20.8698 122.312C25.8516 97.2666 38.1482 74.2612 56.2047 56.2047C74.2613 38.1482 97.2667 25.8515 122.312 20.8697C147.357 15.888 173.317 18.4448 196.909 28.2169C220.501 37.989 240.665 54.5375 254.852 75.7697C269.039 97.0019 276.611 121.964 276.611 147.5C276.611 181.742 263.008 214.582 238.795 238.795C214.582 263.008 181.742 276.611 147.5 276.611ZM147.5 30.7778C124.415 30.7778 101.848 37.6234 82.6527 50.449C63.4578 63.2746 48.4972 81.5042 39.6628 102.832C30.8284 124.161 28.5169 147.63 33.0207 170.271C37.5244 192.913 48.6411 213.711 64.965 230.035C81.2889 246.359 102.087 257.476 124.729 261.979C147.371 266.483 170.84 264.172 192.168 255.337C213.496 246.503 231.725 231.542 244.551 212.347C257.377 193.153 264.222 170.586 264.222 147.5C264.222 116.543 251.925 86.8546 230.035 64.965C208.146 43.0753 178.457 30.7778 147.5 30.7778Z" fill="#262626" stroke="#F9F9F9" stroke-width="4"/>
</g>
<defs>
<clipPath id="clip0_2_22">
<rect width="295" height="295" fill="white"/>
</clipPath>
</defs>
</svg>
